<svg width="26" height="26" viewBox="0 0 26 26" fill="none" xmlns="http://www.w3.org/2000/svg">
<g clip-path="url(#clip0)">
<path d="M24.4691 14.7468C24.3086 14.6107 24.0684 14.6305 23.9323 14.7909C23.7963 14.9513 23.816 15.1917 23.9765 15.3277C24.8008 16.0268 25.2372 16.8093 25.2383 17.5906C25.239 18.1151 25.051 18.5584 24.6634 18.946C24.0153 19.5942 22.8093 20.077 21.0789 20.3811C19.5255 20.654 17.5802 20.7865 15.1298 20.7816C11.3466 20.7765 8.67786 20.4491 7.00807 19.7835C7.65126 19.3258 8.3394 18.7765 9.07735 18.1319C9.30074 18.3992 9.62102 18.5758 9.98004 18.6121C10.7257 18.6874 11.3967 18.1353 11.4687 17.3853C11.5168 16.8837 11.5178 16.3787 11.4725 15.881C12.141 15.214 12.7441 14.5845 13.2861 13.9873C13.5914 14.5098 13.8016 15.0605 13.9118 15.6302C14.0059 16.1158 14.0291 16.6184 13.9807 17.1243C13.9092 17.8738 14.4567 18.5448 15.2041 18.6203C15.948 18.6955 16.6136 18.1477 16.6864 17.3925C16.7604 16.6258 16.7246 15.8584 16.5802 15.1117C16.4278 14.3252 16.1538 13.5658 15.7643 12.846C16.4957 12.8688 17.211 12.9283 17.9016 13.0229C18.5374 13.8286 18.9295 14.706 19.0664 15.633C19.1386 16.1223 19.1392 16.6253 19.0681 17.1282C18.9627 17.8738 19.4796 18.5688 20.2207 18.6776C20.956 18.7855 21.6533 18.2698 21.7594 17.519C21.8674 16.7547 21.8661 15.9866 21.7552 15.236C21.6886 14.7845 21.5813 14.3377 21.4352 13.9003C21.814 14.0457 22.1751 14.2049 22.515 14.3779C22.6996 14.4718 22.9306 14.401 23.0272 14.2112C23.1226 14.0237 23.0479 13.7944 22.8604 13.699C20.7674 12.6338 17.8739 12.0467 14.8999 12.0744C15.1049 11.8089 15.2958 11.55 15.4727 11.2976C16.5883 9.70631 17.1305 8.40224 17.1305 7.31095C17.1305 6.56061 16.8695 5.9198 16.3548 5.40651C15.2778 4.33243 13.4545 4.16318 11.2209 4.92982C9.07852 5.66513 6.78311 7.18258 4.75759 9.20256C1.82305 12.1292 0 15.5656 0 18.1708C0 19.2511 0.32891 20.1502 0.951234 20.7708C1.46743 21.2856 2.10219 21.5429 2.85061 21.5429C3.64289 21.5429 4.56254 21.2545 5.60361 20.678C5.81699 20.5598 6.03611 20.4292 6.26092 20.2868C7.99779 21.1261 10.903 21.5377 15.1287 21.5434C17.5441 21.5466 19.6485 21.4058 21.2107 21.1313C23.1248 20.7949 24.4304 20.2563 25.202 19.4846C25.7325 18.9541 26.001 18.3165 25.9999 17.5895C25.9985 16.5779 25.4692 15.595 24.4691 14.7468ZM20.4979 13.5796C20.7428 14.151 20.9128 14.7446 21.0018 15.3472C21.1019 16.0256 21.1031 16.7204 21.0053 17.4124C20.9584 17.7436 20.6573 17.9717 20.331 17.9238C20.0036 17.8758 19.7754 17.5667 19.8223 17.2348C19.9037 16.6596 19.9028 16.0833 19.8199 15.5217C19.6996 14.7067 19.4091 13.9286 18.955 13.1983C19.4899 13.3036 20.0058 13.4309 20.4979 13.5796ZM10.7105 17.3126C10.6808 17.6234 10.4267 17.8576 10.1188 17.8576C9.93032 17.8576 9.75939 17.7712 9.64646 17.6248C10.001 17.303 10.3665 16.9602 10.7436 16.5963C10.7441 16.8349 10.7334 17.0742 10.7105 17.3126ZM15.8324 15.2563C15.9629 15.9313 15.9952 16.6254 15.9283 17.3197C15.8963 17.6518 15.6056 17.8953 15.2777 17.8622C14.9488 17.829 14.7072 17.5304 14.7391 17.1967C14.7944 16.6182 14.7676 16.0425 14.6597 15.4855C14.5181 14.753 14.2342 14.0503 13.8153 13.3922C13.9749 13.2088 14.1288 13.0284 14.2764 12.8512C14.4759 12.8436 14.6773 12.8381 14.8797 12.8361C15.3481 13.5967 15.6685 14.41 15.8324 15.2563ZM9.63056 6.46235C10.2073 6.6931 10.7468 6.99245 11.2354 7.35529C11.7858 7.76418 12.2779 8.25462 12.6981 8.81311C12.8858 9.06276 12.856 9.407 12.6287 9.61388C12.3676 9.85149 11.9501 9.80863 11.7361 9.524C11.3868 9.05976 10.9787 8.6528 10.523 8.31439C9.86202 7.82344 9.1068 7.47869 8.26988 7.28333C8.72249 6.97981 9.17734 6.70529 9.63056 6.46235ZM2.1577 13.8036C2.75219 14.0091 3.31068 14.2865 3.82114 14.6312C4.38933 15.015 4.90303 15.4829 5.34793 16.0221C5.54689 16.2633 5.53282 16.6089 5.31502 16.826C5.06533 17.075 4.64664 17.0508 4.4201 16.7763C4.05031 16.3282 3.62431 15.9398 3.15392 15.6221C2.68318 15.3042 2.16318 15.0568 1.60474 14.8816C1.7677 14.5262 1.95234 14.166 2.1577 13.8036ZM5.23463 20.0117C3.51878 20.9619 2.29364 21.0338 1.48911 20.2315C1.00643 19.7501 0.761719 19.0568 0.761719 18.1708C0.761719 17.3926 0.954129 16.5136 1.30828 15.5872C1.82259 15.7414 2.29917 15.9641 2.72756 16.2534C3.13742 16.5302 3.50919 16.8693 3.83251 17.2611C4.34322 17.8801 5.2876 17.929 5.85289 17.3653C6.35045 16.8692 6.38595 16.0833 5.93541 15.5373C5.44406 14.9419 4.87617 14.4246 4.24745 14C3.72531 13.6474 3.15804 13.3593 2.55699 13.1383C2.86914 12.6439 3.21689 12.149 3.59734 11.6603C4.37536 11.7042 5.44025 11.9056 6.4223 12.5689C6.83221 12.8457 7.20393 13.1847 7.5272 13.5765C8.00729 14.1584 8.8692 14.244 9.44795 13.7708C10.0309 13.2943 10.1089 12.4329 9.63016 11.8528C9.3276 11.4861 8.9926 11.1458 8.63449 10.8412C8.47432 10.705 8.23388 10.7244 8.09763 10.8846C7.96133 11.0448 7.98078 11.2852 8.14105 11.4215C8.46513 11.6971 8.76845 12.0053 9.04257 12.3375C9.25539 12.5955 9.22101 12.9724 8.96573 13.1811C8.70975 13.3904 8.32797 13.3503 8.11469 13.0917C7.7449 12.6435 7.31895 12.2552 6.84856 11.9376C6.07709 11.4165 5.16455 11.0812 4.17696 10.9505C4.47906 10.5971 4.79746 10.2491 5.13094 9.90897C5.69562 10.0433 6.23513 10.2382 6.73695 10.4904C6.92184 10.5833 7.15264 10.5114 7.24826 10.3212C7.34271 10.1332 7.26695 9.9043 7.07901 9.80985C6.66138 9.59997 6.22045 9.42681 5.76271 9.29036C6.29576 8.78981 6.84425 8.32582 7.4005 7.90398C8.41948 8.02423 9.31673 8.36731 10.0688 8.92585C10.4659 9.22079 10.822 9.5761 11.1273 9.98195C11.6098 10.6233 12.5525 10.7132 13.1413 10.1773C13.6612 9.70422 13.7323 8.92092 13.3067 8.35522C12.8427 7.73838 12.2986 7.19624 11.6895 6.74383C11.3231 6.47174 10.9314 6.2317 10.5188 6.02573C10.838 5.88339 11.1551 5.75786 11.4683 5.65031C12.3129 5.3604 13.0819 5.21628 13.7523 5.21628C14.625 5.21628 15.3306 5.46064 15.8171 5.94585C16.1885 6.3162 16.369 6.76272 16.369 7.31095C16.369 8.22756 15.8577 9.42173 14.8491 10.8604C14.3451 11.5794 13.712 12.4192 13.0607 13.097C10.7914 15.4586 8.04268 18.4565 5.23463 20.0117Z" fill="#C71F25"/>
</g>
<defs>
<clipPath id="clip0">
<rect width="26" height="26" fill="white"/>
</clipPath>
</defs>
</svg>
