<svg width="26" height="26" viewBox="0 0 26 26" fill="none" xmlns="http://www.w3.org/2000/svg">
<g clip-path="url(#clip0)">
<path d="M8.65773 0.89751C9.18756 0.80506 9.72968 0.758203 10.269 0.758203C10.6656 0.758203 11.0567 0.783628 11.441 0.832254L11.1359 1.56837C10.953 2.00985 11.0173 2.52168 11.3038 2.90412C11.5623 3.24941 11.9719 3.44841 12.3953 3.44841C12.4818 3.44841 12.569 3.44007 12.6554 3.42303L13.1116 3.33296C13.6014 3.23626 13.998 2.88006 14.1464 2.4034L14.3627 1.70919C17.2728 3.14048 19.3434 6.0493 19.5559 9.47966C19.5683 9.68069 19.7352 9.83536 19.9339 9.83536C19.9418 9.83536 19.9497 9.83511 19.9578 9.8346C20.1667 9.82166 20.3256 9.64177 20.3126 9.43275C19.985 4.14338 15.5733 0 10.269 0C9.68616 0 9.10017 0.050648 8.52742 0.15063C8.32114 0.186619 8.18309 0.382994 8.21908 0.589225C8.25507 0.795456 8.45165 0.933651 8.65773 0.89751ZM13.4225 2.17786C13.3569 2.38874 13.1814 2.5463 12.9648 2.58911L12.5085 2.67919C12.283 2.72362 12.0484 2.63359 11.9106 2.4496C11.7839 2.28042 11.7554 2.05397 11.8363 1.85866L12.2077 0.962463C12.709 1.06932 13.1958 1.21671 13.6646 1.40111L13.4225 2.17786Z" fill="white"/>
<path d="M4.93278 17.6882C2.44719 15.9451 0.963281 13.095 0.963281 10.0641C0.963281 6.13351 3.45074 2.60888 7.15305 1.29345C7.35033 1.22334 7.45345 1.00659 7.38339 0.809309C7.31328 0.612025 7.09649 0.508909 6.89925 0.578967C2.89528 2.00161 0.205078 5.81335 0.205078 10.0641C0.205078 13.3419 1.80969 16.4241 4.49742 18.3089C4.56368 18.3554 4.63956 18.3777 4.71477 18.3777C4.83416 18.3777 4.95173 18.3214 5.02548 18.2162C5.14568 18.0448 5.10418 17.8084 4.93278 17.6882Z" fill="white"/>
<path d="M24.3158 10.6837C24.1783 10.4596 23.9394 10.3242 23.6766 10.3213C23.4104 10.318 23.1608 10.4521 23.0147 10.6789C22.7173 11.1407 22.2124 11.4163 21.6642 11.4163C21.2126 11.4163 20.7794 11.2244 20.4755 10.8898C20.2235 10.6122 19.8303 10.5156 19.4739 10.6434C19.2826 10.712 19.0815 10.7468 18.8765 10.7468C17.8981 10.7468 17.1021 9.95084 17.1021 8.97306L17.1023 8.86838C17.1029 8.46062 16.847 8.09587 16.4655 7.96071C15.9833 7.78981 15.6592 7.331 15.6592 6.81977L15.6595 6.65595C15.6599 6.44784 15.5722 6.24773 15.4189 6.10691C15.2652 5.96578 15.0573 5.89522 14.85 5.91331C11.5853 6.19678 8.65453 8.06645 7.01018 10.9147C7.00488 10.9239 6.99992 10.9334 6.99537 10.943L6.30581 12.4104C6.30132 12.42 6.29717 12.4299 6.29348 12.4399C5.53321 14.4898 5.46517 16.7308 6.0968 18.9206C6.91005 21.7399 9.85345 24.7122 12.6583 25.5464C13.6745 25.8487 14.7097 26 15.7331 26C16.67 26 17.597 25.8731 18.4901 25.6191C18.6915 25.5618 18.8083 25.3521 18.751 25.1507C18.6937 24.9493 18.4839 24.8326 18.2826 24.8898C16.5529 25.3818 14.6827 25.3575 12.8744 24.8196C10.3326 24.0636 7.56246 21.2659 6.82528 18.7104C6.24046 16.6829 6.30056 14.6112 6.99891 12.7183L7.67467 11.2801C9.19437 8.6579 11.8938 6.93582 14.9012 6.66995L14.901 6.81916C14.901 7.65157 15.428 8.39754 16.2122 8.67544C16.2912 8.70339 16.3441 8.78053 16.344 8.86732L16.3438 8.97256C16.3438 10.369 17.4799 11.5051 18.8764 11.5051C19.169 11.5051 19.4561 11.4553 19.7298 11.3571C19.7976 11.3328 19.8683 11.349 19.9141 11.3996C20.3615 11.892 20.9993 12.1745 21.6641 12.1745C22.4712 12.1745 23.2144 11.7689 23.652 11.0895C23.6604 11.0766 23.67 11.0796 23.6695 11.0802C24.5643 12.5388 25.0372 14.2187 25.0372 15.9383C25.0372 17.7256 24.5293 19.4615 23.5684 20.9583C22.6324 22.4164 21.3139 23.5827 19.7557 24.3313C19.5669 24.4219 19.4874 24.6484 19.5781 24.8372C19.6688 25.026 19.8952 25.1054 20.084 25.0147C21.769 24.2053 23.1945 22.9443 24.2064 21.3679C25.2459 19.7487 25.7954 17.8712 25.7954 15.9384C25.7955 14.0787 25.2839 12.2617 24.3158 10.6837Z" fill="white"/>
<path d="M6.68641 6.05608C6.87293 6.2426 7.12091 6.34531 7.38457 6.34531C7.92901 6.34531 8.37195 5.90237 8.37195 5.35793V4.02066C8.37195 3.47622 7.92901 3.03333 7.38457 3.03333H6.63875C6.09431 3.03333 5.65137 3.47627 5.65137 4.02066V4.61206C5.65137 4.87576 5.75408 5.12374 5.9406 5.31021L6.68641 6.05608ZM6.40957 4.02066C6.40957 3.89429 6.51238 3.79153 6.63875 3.79153H7.38457C7.51093 3.79153 7.61375 3.89434 7.61375 4.02066V5.35793C7.61375 5.48429 7.51093 5.58711 7.38457 5.58711C7.32335 5.58711 7.26583 5.56325 7.22256 5.51998L6.47675 4.77416C6.43343 4.73084 6.40957 4.67327 6.40957 4.61211V4.02066Z" fill="white"/>
<path d="M4.66554 10.0618C4.98505 9.74869 5.06324 9.27046 4.8602 8.87185L4.75056 8.65667C4.53387 8.23122 4.05908 8.01503 3.59582 8.13083L3.24967 8.21737C2.94174 8.29435 2.6837 8.51469 2.5594 8.80675L2.46705 9.02379C2.28579 9.4498 2.41494 9.94516 2.78115 10.2284L3.03702 10.4264C3.22035 10.5682 3.44023 10.6381 3.6594 10.6381C3.91881 10.6381 4.17731 10.5402 4.37323 10.3482L4.66554 10.0618ZM4.13485 9.52032L3.84264 9.80671C3.75024 9.89724 3.6034 9.90589 3.50094 9.82668L3.24507 9.62869C3.15141 9.55626 3.1184 9.42964 3.16475 9.32071L3.2571 9.10366C3.2889 9.029 3.35486 8.97264 3.43361 8.95298L3.77976 8.86644C3.80114 8.86114 3.82257 8.85856 3.84375 8.85856C3.93979 8.85856 4.02961 8.91178 4.075 9.0009L4.18464 9.21607C4.23655 9.31798 4.21653 9.44025 4.13485 9.52032Z" fill="white"/>
<path d="M11.4335 14.4531C11.2975 14.7739 11.3134 15.1342 11.4771 15.4417C11.6408 15.7492 11.9309 15.9636 12.2729 16.0298L13.0047 16.1716C13.0767 16.1855 13.1494 16.1923 13.2219 16.1923C13.4635 16.1923 13.7021 16.1162 13.8996 15.9723C14.1565 15.7853 14.3257 15.4971 14.364 15.1817L14.4368 14.5806C14.4983 14.0742 14.2129 13.5819 13.7429 13.3836L13.2256 13.1653C12.6428 12.9193 11.9678 13.1931 11.7208 13.7754L11.4335 14.4531ZM12.1315 14.7491L12.4189 14.0714C12.4819 13.9226 12.6271 13.8331 12.7794 13.8331C12.83 13.8331 12.8814 13.843 12.9308 13.8638L13.448 14.0821C13.6079 14.1496 13.705 14.317 13.6842 14.4894L13.6113 15.0905C13.598 15.1993 13.542 15.2948 13.4533 15.3594C13.3647 15.424 13.2564 15.4481 13.1489 15.4272L12.4171 15.2855C12.3007 15.2629 12.2021 15.19 12.1464 15.0854C12.0907 14.9808 12.0853 14.8582 12.1315 14.7491Z" fill="white"/>
<path d="M19.9997 20.6029L20.6397 19.8421C21.0219 19.3879 20.9999 18.7225 20.5886 18.2945L20.0415 17.725C19.8242 17.4988 19.5318 17.3725 19.2182 17.3694C18.9062 17.3648 18.6096 17.4867 18.3878 17.7085L17.7549 18.3412C17.3438 18.7524 17.3022 19.4091 17.6581 19.8689L18.198 20.5663C18.4133 20.8444 18.7385 21.0079 19.0901 21.0151C19.0981 21.0152 19.1061 21.0153 19.1141 21.0153C19.4568 21.0154 19.7785 20.8659 19.9997 20.6029ZM19.1056 20.2571C18.9842 20.2546 18.8719 20.1981 18.7976 20.1021L18.2577 19.4047C18.1348 19.246 18.1492 19.0193 18.2911 18.8774L18.924 18.2446C18.9995 18.169 19.0998 18.1275 19.2065 18.1275H19.2106C19.3189 18.1286 19.4198 18.1722 19.4948 18.2503L20.0419 18.8197C20.1839 18.9674 20.1914 19.1972 20.0595 19.3539L19.4195 20.1147C19.3414 20.2077 19.2245 20.2594 19.1056 20.2571Z" fill="white"/>
<path d="M18.8458 15.6945C19.1479 15.6945 19.4167 15.5373 19.5648 15.274C19.7128 15.0107 19.7076 14.6993 19.5507 14.4412L19.1304 13.7497C18.9429 13.4413 18.5813 13.2915 18.2306 13.3767L17.7453 13.4947C17.3306 13.5956 17.0634 13.9903 17.1237 14.4128L17.2056 14.9863C17.2634 15.3901 17.6144 15.6945 18.0222 15.6945H18.8458ZM17.9562 14.8791L17.8743 14.3056C17.8694 14.2715 17.891 14.2396 17.9245 14.2314L18.4097 14.1134H18.4098C18.415 14.1121 18.4204 14.1115 18.4256 14.1115C18.4484 14.1115 18.4701 14.1233 18.4824 14.1435L18.9027 14.8351C18.9161 14.8572 18.9165 14.8798 18.9038 14.9023C18.8911 14.9249 18.8716 14.9363 18.8457 14.9363H18.0221C17.9892 14.9363 17.9609 14.9116 17.9562 14.8791Z" fill="white"/>
<path d="M23.3646 16.5309C23.4516 16.2987 23.4424 16.0468 23.3387 15.8215L23.0641 15.2246C22.9589 14.9959 22.7619 14.8181 22.5236 14.7368C22.2852 14.6556 22.0206 14.6759 21.7975 14.7928L21.4371 14.9816C21.2163 15.0972 21.0548 15.2922 20.9823 15.5306C20.9098 15.769 20.9354 16.0208 21.0544 16.2398L21.3574 16.7973C21.5231 17.1022 21.8421 17.2788 22.1715 17.2788C22.2977 17.2788 22.4256 17.2528 22.5469 17.1982L22.8791 17.0488C23.1052 16.947 23.2776 16.7631 23.3646 16.5309ZM22.6545 16.2649C22.6455 16.2889 22.6223 16.3329 22.568 16.3573L22.2358 16.5068C22.1577 16.5419 22.0645 16.5105 22.0236 16.4353L21.7206 15.8777C21.692 15.825 21.7003 15.7758 21.7077 15.7512C21.7152 15.7266 21.7358 15.6811 21.7889 15.6532L22.1494 15.4644C22.2038 15.4359 22.2539 15.4459 22.2789 15.4544C22.3038 15.4629 22.3496 15.4855 22.3753 15.5415L22.6499 16.1384C22.6749 16.1926 22.6635 16.2409 22.6545 16.2649Z" fill="white"/>
<path d="M12.3799 21.1527L12.9197 21.3885C13.077 21.4573 13.2415 21.4899 13.4036 21.4899C13.8471 21.4899 14.273 21.2456 14.4857 20.8269L14.7438 20.3191C14.8931 20.0252 14.9168 19.6915 14.8106 19.3793C14.7043 19.0672 14.482 18.8173 14.1844 18.6756L13.6539 18.4229C13.0565 18.1382 12.353 18.3772 12.0526 18.9668L11.7852 19.4914C11.6341 19.7877 11.6117 20.1373 11.7238 20.4505C11.836 20.7636 12.0751 21.0195 12.3799 21.1527ZM12.4607 19.8357L12.7282 19.311C12.8086 19.1532 12.9661 19.0625 13.1311 19.0625C13.197 19.0625 13.2641 19.077 13.3279 19.1073L13.8583 19.36C13.9698 19.4131 14.0531 19.5067 14.0929 19.6236C14.1327 19.7405 14.1238 19.8655 14.0679 19.9756L13.8098 20.4834C13.701 20.6975 13.4433 20.7898 13.2233 20.6937L12.6835 20.4579C12.5676 20.4073 12.4804 20.3139 12.4378 20.1948C12.3953 20.0758 12.4033 19.9483 12.4607 19.8357Z" fill="white"/>
<path d="M12.6264 11.1505H13.1534C13.5657 11.1505 13.917 10.8697 14.0078 10.4676L14.2278 9.49332C14.2997 9.17512 14.1902 8.84586 13.9421 8.63407C13.694 8.42233 13.3516 8.36587 13.0486 8.48683L12.3016 8.7851C11.9668 8.9188 11.7505 9.23811 11.7505 9.59861V10.2746C11.7504 10.7576 12.1434 11.1505 12.6264 11.1505ZM12.5086 9.59861C12.5086 9.55013 12.5377 9.50722 12.5827 9.48922L13.3297 9.19095C13.3461 9.18442 13.3612 9.1818 13.3749 9.1818C13.4095 9.1818 13.4354 9.19838 13.4498 9.21071C13.47 9.22795 13.5019 9.26586 13.4883 9.32621L13.2683 10.3005C13.256 10.3545 13.2088 10.3923 13.1534 10.3923H12.6264C12.5615 10.3923 12.5086 10.3395 12.5086 10.2746V9.59861Z" fill="white"/>
<path d="M11.0037 4.44336H10.6105C10.4011 4.44336 10.2314 4.6131 10.2314 4.82246C10.2314 5.03183 10.4011 5.20156 10.6105 5.20156H11.0037C11.2131 5.20156 11.3828 5.03183 11.3828 4.82246C11.3828 4.6131 11.2131 4.44336 11.0037 4.44336Z" fill="white"/>
<path d="M14.8752 3.80847C14.6658 3.80847 14.4961 3.97821 14.4961 4.18757C14.4961 4.39694 14.6658 4.56667 14.8752 4.56667H15.3591C15.5685 4.56667 15.7382 4.39694 15.7382 4.18757C15.7382 3.97821 15.5685 3.80847 15.3591 3.80847H14.8752Z" fill="white"/>
<path d="M6.04658 8.01467H6.6485C6.85791 8.01467 7.0276 7.84494 7.0276 7.63557C7.0276 7.42621 6.85791 7.25647 6.6485 7.25647H6.04658C5.83717 7.25647 5.66748 7.42621 5.66748 7.63557C5.66748 7.84494 5.83717 8.01467 6.04658 8.01467Z" fill="white"/>
<path d="M3.32148 12.337C3.11207 12.337 2.94238 12.5068 2.94238 12.7161C2.94238 12.9255 3.11207 13.0952 3.32148 13.0952H3.6783C3.88771 13.0952 4.0574 12.9255 4.0574 12.7161C4.0574 12.5068 3.88771 12.337 3.6783 12.337H3.32148Z" fill="white"/>
<path d="M4.07769 6.47195C4.28711 6.47195 4.45679 6.30221 4.45679 6.09285C4.45679 5.88348 4.28711 5.71375 4.07769 5.71375H3.67842C3.469 5.71375 3.29932 5.88348 3.29932 6.09285C3.29932 6.30221 3.469 6.47195 3.67842 6.47195H4.07769Z" fill="white"/>
<path d="M10.415 12.3535C10.415 12.1441 10.2453 11.9744 10.0359 11.9744H9.58223C9.37281 11.9744 9.20312 12.1441 9.20312 12.3535C9.20312 12.5628 9.37281 12.7326 9.58223 12.7326H10.0359C10.2453 12.7326 10.415 12.5628 10.415 12.3535Z" fill="white"/>
<path d="M10.0358 18.1274H10.429C10.6384 18.1274 10.8081 17.9577 10.8081 17.7484C10.8081 17.539 10.6384 17.3693 10.429 17.3693H10.0358C9.82643 17.3693 9.65674 17.539 9.65674 17.7484C9.65674 17.9577 9.82643 18.1274 10.0358 18.1274Z" fill="white"/>
<path d="M15.7312 17.5109C15.9406 17.5109 16.1103 17.3411 16.1103 17.1318C16.1103 16.9224 15.9406 16.7527 15.7312 16.7527H15.1164C14.907 16.7527 14.7373 16.9224 14.7373 17.1318C14.7373 17.3411 14.907 17.5109 15.1164 17.5109H15.7312Z" fill="white"/>
<path d="M15.57 23.4083H15.933C16.1424 23.4083 16.3121 23.2386 16.3121 23.0292C16.3121 22.8199 16.1424 22.6501 15.933 22.6501H15.57C15.3606 22.6501 15.1909 22.8199 15.1909 23.0292C15.1909 23.2386 15.3606 23.4083 15.57 23.4083Z" fill="white"/>
<path d="M22.5565 18.5673H22.1828C21.9734 18.5673 21.8037 18.737 21.8037 18.9464C21.8037 19.1557 21.9734 19.3254 22.1828 19.3254H22.5565C22.7659 19.3254 22.9356 19.1557 22.9356 18.9464C22.9356 18.737 22.7659 18.5673 22.5565 18.5673Z" fill="white"/>
</g>
<defs>
<clipPath id="clip0">
<rect width="26" height="26" fill="white"/>
</clipPath>
</defs>
</svg>
