<svg width="26" height="26" viewBox="0 0 26 26" fill="none" xmlns="http://www.w3.org/2000/svg">
<path d="M4.74919 14.0157L5.87734 19.5512C6.00012 20.1455 6.3237 20.6795 6.79373 21.0634C7.26376 21.4473 7.85159 21.6577 8.45845 21.6593H17.426C18.0329 21.6578 18.6208 21.4475 19.0909 21.0637C19.561 20.68 19.8848 20.1461 20.0077 19.5518L21.1324 14.0348C21.7002 13.8795 22.2011 13.5415 22.5576 13.0731C22.9141 12.6047 23.1065 12.0319 23.1049 11.4433C23.1033 10.8546 22.9079 10.2829 22.5489 9.8164C22.1899 9.3499 21.6872 9.01463 21.1186 8.86238C19.7268 6.10943 16.551 4.34021 12.9715 4.34021C9.39202 4.34021 6.21555 6.10943 4.82495 8.86258C4.26206 9.01361 3.76377 9.34409 3.40567 9.8039C3.04757 10.2637 2.84919 10.8278 2.84062 11.4105C2.83205 11.9932 3.01376 12.5629 3.35819 13.033C3.70262 13.5032 4.19098 13.8482 4.74919 14.0157ZM19.3104 19.4098C19.2207 19.8437 18.9845 20.2335 18.6413 20.5138C18.2982 20.7941 17.8691 20.9477 17.426 20.9489H8.45845C8.01537 20.9477 7.58619 20.7941 7.24301 20.5139C6.89983 20.2336 6.66355 19.8438 6.57386 19.4098L5.4973 14.1286H5.51863C6.21484 14.1319 6.88426 13.8605 7.38169 13.3734C7.88102 13.8577 8.54932 14.1286 9.24495 14.1286C9.94059 14.1286 10.6089 13.8577 11.1082 13.3734C11.6075 13.8577 12.2757 14.1286 12.9713 14.1286C13.6669 14.1286 14.3351 13.8577 14.8343 13.3734C15.3337 13.8577 16.002 14.1286 16.6976 14.1286C17.3932 14.1286 18.0615 13.8577 18.5609 13.3734C19.0492 13.8514 19.7039 14.1214 20.3872 14.1268L19.3104 19.4098ZM5.13898 9.51888C5.19342 9.50811 5.24459 9.48476 5.28839 9.45069C5.3322 9.41662 5.36743 9.37277 5.39127 9.32266C6.6218 6.72774 9.59819 5.05115 12.9715 5.05115C16.3448 5.05115 19.3202 6.72774 20.5517 9.32348C20.5755 9.37361 20.6107 9.41746 20.6545 9.45154C20.6984 9.48561 20.7495 9.50895 20.804 9.51969C21.2545 9.60809 21.66 9.85122 21.9503 10.207C22.2405 10.5628 22.3972 11.0089 22.3933 11.468C22.3893 11.9271 22.225 12.3704 21.9287 12.7212C21.6325 13.072 21.2229 13.3081 20.7709 13.3888C20.6563 13.4082 20.5403 13.4182 20.4241 13.4187C20.1172 13.4201 19.8143 13.3488 19.5403 13.2106C19.2662 13.0725 19.0287 12.8714 18.8473 12.6238C18.8142 12.5793 18.7712 12.543 18.7217 12.518C18.6721 12.493 18.6174 12.4799 18.5619 12.4798C18.5067 12.4798 18.4523 12.4926 18.4029 12.5173C18.3535 12.542 18.3106 12.5778 18.2775 12.622C18.0949 12.8688 17.857 13.0693 17.5828 13.2075C17.3087 13.3457 17.0059 13.4177 16.6989 13.4177C16.3919 13.4177 16.0892 13.3457 15.8151 13.2075C15.5409 13.0693 15.303 12.8688 15.1203 12.622C15.0872 12.5779 15.0443 12.542 14.995 12.5173C14.9456 12.4927 14.8912 12.4798 14.836 12.4798C14.7806 12.48 14.7261 12.4932 14.6767 12.5182C14.6274 12.5432 14.5845 12.5794 14.5516 12.6238C14.3692 12.8704 14.1315 13.0707 13.8576 13.2087C13.5837 13.3468 13.2813 13.4187 12.9746 13.4187C12.6679 13.4187 12.3655 13.3468 12.0917 13.2087C11.8178 13.0707 11.5801 12.8704 11.3977 12.6238C11.3647 12.5794 11.3219 12.5432 11.2725 12.5182C11.2232 12.4932 11.1686 12.4801 11.1133 12.4798C11.0581 12.4798 11.0037 12.4927 10.9543 12.5173C10.905 12.542 10.862 12.5779 10.8289 12.622C10.6463 12.8688 10.4084 13.0693 10.1342 13.2075C9.86007 13.3457 9.55734 13.4177 9.25034 13.4177C8.94333 13.4177 8.64061 13.3457 8.36646 13.2075C8.09231 13.0693 7.85437 12.8688 7.67175 12.622C7.63865 12.5779 7.59572 12.542 7.54636 12.5173C7.497 12.4927 7.44256 12.4798 7.38738 12.4798C7.33204 12.48 7.27751 12.4932 7.22814 12.5182C7.17877 12.5432 7.13592 12.5794 7.103 12.6238C6.92151 12.8714 6.684 13.0725 6.4099 13.2106C6.13579 13.3488 5.83288 13.4201 5.52594 13.4187C5.3929 13.4193 5.26018 13.4057 5.13005 13.3781C4.68455 13.2869 4.28438 13.0443 3.99761 12.6914C3.71083 12.3385 3.55516 11.8971 3.55708 11.4424C3.55899 10.9877 3.71837 10.5477 4.00811 10.1972C4.29785 9.84675 4.70005 9.60748 5.1463 9.5201L5.13898 9.51888Z" fill="#C71F25"/>
<path d="M13 15.0312C12.9057 15.0313 12.8154 15.0688 12.7487 15.1354C12.6821 15.2021 12.6446 15.2925 12.6445 15.3867V19.2122C12.6445 19.3064 12.682 19.3969 12.7486 19.4635C12.8153 19.5302 12.9057 19.5676 13 19.5676C13.0943 19.5676 13.1847 19.5302 13.2514 19.4635C13.318 19.3969 13.3555 19.3064 13.3555 19.2122V15.3867C13.3554 15.2925 13.3179 15.2021 13.2513 15.1354C13.1846 15.0688 13.0943 15.0313 13 15.0312Z" fill="#C71F25"/>
<path d="M10.6779 15.3369C10.6646 15.2434 10.6147 15.1591 10.5392 15.1025C10.4637 15.0458 10.3688 15.0215 10.2753 15.0348C10.1819 15.0482 10.0976 15.0981 10.0409 15.1736C9.9843 15.2491 9.95996 15.344 9.9733 15.4374L10.5142 19.2631C10.5264 19.3476 10.5687 19.425 10.6333 19.4809C10.6978 19.5369 10.7804 19.5677 10.8658 19.5678C10.8826 19.5678 10.8994 19.5666 10.916 19.5643C10.9622 19.5578 11.0067 19.5422 11.0469 19.5185C11.0871 19.4947 11.1223 19.4633 11.1503 19.426C11.1784 19.3887 11.1989 19.3462 11.2105 19.301C11.2222 19.2558 11.2248 19.2087 11.2182 19.1625L10.6779 15.3369Z" fill="#C71F25"/>
<path d="M8.22017 15.3169C8.20164 15.2244 8.14714 15.1431 8.06867 15.0909C7.9902 15.0386 7.89418 15.0197 7.80174 15.0382C7.70929 15.0567 7.628 15.1112 7.57573 15.1897C7.52347 15.2682 7.50452 15.3642 7.52305 15.4566L8.29066 19.2823C8.30683 19.3627 8.35033 19.4351 8.41378 19.4872C8.47724 19.5392 8.55674 19.5677 8.63881 19.5679C8.66242 19.5679 8.68597 19.5655 8.70909 19.5608C8.75487 19.5516 8.79839 19.5335 8.83717 19.5075C8.87595 19.4815 8.90923 19.4481 8.93511 19.4093C8.96099 19.3704 8.97896 19.3268 8.98799 19.281C8.99703 19.2352 8.99696 19.1881 8.98778 19.1423L8.22017 15.3169Z" fill="#C71F25"/>
<path d="M15.6954 15.0347C15.6492 15.0281 15.6021 15.0307 15.5569 15.0423C15.5117 15.054 15.4692 15.0744 15.4319 15.1025C15.3946 15.1306 15.3632 15.1657 15.3394 15.2059C15.3157 15.2462 15.3002 15.2907 15.2937 15.3369L14.7525 19.1624C14.746 19.2086 14.7486 19.2557 14.7603 19.3009C14.7719 19.3461 14.7924 19.3886 14.8204 19.4259C14.8485 19.4632 14.8836 19.4946 14.9238 19.5183C14.9641 19.5421 15.0086 19.5576 15.0548 19.5642C15.0714 19.5665 15.0882 19.5677 15.105 19.5676C15.1904 19.5676 15.273 19.5367 15.3375 19.4808C15.4021 19.4248 15.4444 19.3475 15.4566 19.2629L15.9975 15.4375C16.0042 15.3912 16.0017 15.344 15.9902 15.2987C15.9786 15.2533 15.9582 15.2107 15.9301 15.1733C15.9021 15.1359 15.8669 15.1044 15.8266 15.0806C15.7863 15.0568 15.7418 15.0412 15.6954 15.0347Z" fill="#C71F25"/>
<path d="M18.1701 15.0382C18.1243 15.029 18.0771 15.0289 18.0313 15.038C17.9855 15.047 17.942 15.065 17.9031 15.0909C17.8643 15.1167 17.8309 15.15 17.8049 15.1888C17.7789 15.2276 17.7608 15.2711 17.7516 15.3169L16.984 19.1423C16.9655 19.2348 16.9844 19.3308 17.0366 19.4092C17.0888 19.4877 17.1701 19.5422 17.2625 19.5608C17.2857 19.5655 17.3093 19.5679 17.333 19.5679C17.415 19.5677 17.4945 19.5392 17.5579 19.4871C17.6213 19.4351 17.6648 19.3627 17.6809 19.2823L18.4485 15.4566C18.4671 15.3642 18.4482 15.2682 18.3959 15.1897C18.3437 15.1113 18.2625 15.0568 18.1701 15.0382Z" fill="#C71F25"/>
</svg>
