<svg width="26" height="26" viewBox="0 0 26 26" fill="none" xmlns="http://www.w3.org/2000/svg">
<path d="M25.0685 8.65025L17.3498 0.931495C17.3121 0.893769 17.2673 0.863843 17.218 0.843426C17.1687 0.823009 17.1159 0.8125 17.0625 0.8125C17.0092 0.8125 16.9563 0.823009 16.907 0.843426C16.8578 0.863843 16.813 0.893769 16.7752 0.931495L8.007 9.69974L8.58154 10.2742L17.0625 1.7933L24.2068 8.93751L19.3781 13.7658L7.41723 10.5762C7.34839 10.5579 7.27595 10.558 7.20716 10.5764C7.13836 10.5949 7.07563 10.6311 7.02525 10.6815L0.931495 16.7752C0.893769 16.813 0.863843 16.8578 0.843426 16.907C0.823009 16.9563 0.8125 17.0092 0.8125 17.0625C0.8125 17.1159 0.823009 17.1687 0.843426 17.218C0.863843 17.2673 0.893769 17.3121 0.931495 17.3498L8.65025 25.0685C8.68797 25.1063 8.73275 25.1362 8.78204 25.1566C8.83133 25.177 8.88416 25.1875 8.93751 25.1875C8.99087 25.1875 9.0437 25.177 9.09299 25.1566C9.14227 25.1362 9.18706 25.1063 9.22478 25.0685L25.0685 9.22478C25.1063 9.18706 25.1362 9.14227 25.1566 9.09299C25.177 9.0437 25.1875 8.99087 25.1875 8.93751C25.1875 8.88416 25.177 8.83133 25.1566 8.78204C25.1362 8.73275 25.1063 8.68797 25.0685 8.65025ZM18.1345 14.2751L13.8912 15.7905L9.04162 11.8504L18.1345 14.2751ZM8.93751 24.2067L1.79325 17.0625L2.84376 16.0121L9.98798 23.1563L8.93751 24.2067ZM10.5625 22.5817L3.41825 15.4375L7.06267 11.7931L7.3407 11.5151L13.5563 16.5653C13.6105 16.6093 13.6751 16.6386 13.7439 16.6504C13.8127 16.6622 13.8834 16.6561 13.9491 16.6326L17.9354 15.209L10.5625 22.5817ZM17.3498 3.369C17.3121 3.33127 17.2673 3.30134 17.218 3.28093C17.1687 3.26051 17.1159 3.25 17.0625 3.25C17.0092 3.25 16.9563 3.26051 16.907 3.28093C16.8578 3.30134 16.813 3.33127 16.7752 3.369L14.744 5.40025C14.7063 5.43797 14.6763 5.48275 14.6559 5.53204C14.6355 5.58133 14.625 5.63416 14.625 5.68751C14.625 5.74087 14.6355 5.79369 14.6559 5.84298C14.6763 5.89227 14.7063 5.93706 14.744 5.97478L16.7752 8.00603C16.813 8.04376 16.8578 8.07369 16.907 8.0941C16.9563 8.11452 17.0092 8.12503 17.0625 8.12503C17.1159 8.12503 17.1687 8.11452 17.218 8.0941C17.2673 8.07369 17.3121 8.04376 17.3498 8.00603L19.381 5.97478C19.4188 5.93706 19.4487 5.89227 19.4691 5.84298C19.4895 5.79369 19.5 5.74087 19.5 5.68751C19.5 5.63416 19.4895 5.58133 19.4691 5.53204C19.4487 5.48275 19.4188 5.43797 19.381 5.40025L17.3498 3.369ZM17.0625 7.14428L15.6058 5.68751L17.0625 4.23075L18.5193 5.68751L17.0625 7.14428ZM20.3125 11.375C20.3659 11.3751 20.4187 11.3646 20.468 11.3442C20.5173 11.3238 20.5621 11.2938 20.5998 11.256L22.631 9.22478C22.6688 9.18706 22.6987 9.14227 22.7191 9.09299C22.7395 9.0437 22.75 8.99087 22.75 8.93751C22.75 8.88416 22.7395 8.83133 22.7191 8.78204C22.6987 8.73275 22.6688 8.68797 22.631 8.65025L20.5998 6.619C20.5621 6.58127 20.5173 6.55134 20.468 6.53093C20.4187 6.51051 20.3659 6.5 20.3125 6.5C20.2592 6.5 20.2063 6.51051 20.157 6.53093C20.1078 6.55134 20.063 6.58127 20.0252 6.619L17.994 8.65025C17.9563 8.68797 17.9263 8.73275 17.9059 8.78204C17.8855 8.83133 17.875 8.88416 17.875 8.93751C17.875 8.99087 17.8855 9.0437 17.9059 9.09299C17.9263 9.14227 17.9563 9.18706 17.994 9.22478L20.0252 11.256C20.0629 11.2938 20.1077 11.3238 20.157 11.3442C20.2063 11.3646 20.2592 11.3751 20.3125 11.375ZM20.3125 7.48075L21.7693 8.93751L20.3125 10.3943L18.8558 8.93751L20.3125 7.48075ZM13.5252 6.619L11.494 8.65025C11.4563 8.68797 11.4263 8.73275 11.4059 8.78204C11.3855 8.83133 11.375 8.88416 11.375 8.93751C11.375 8.99087 11.3855 9.0437 11.4059 9.09299C11.4263 9.14227 11.4563 9.18706 11.494 9.22478L13.5252 11.256C13.563 11.2938 13.6078 11.3237 13.657 11.3441C13.7063 11.3645 13.7592 11.375 13.8125 11.375C13.8659 11.375 13.9187 11.3645 13.968 11.3441C14.0173 11.3237 14.0621 11.2938 14.0998 11.256L16.131 9.22478C16.1688 9.18706 16.1987 9.14227 16.2191 9.09299C16.2395 9.0437 16.25 8.99087 16.25 8.93751C16.25 8.88416 16.2395 8.83133 16.2191 8.78204C16.1987 8.73275 16.1688 8.68797 16.131 8.65025L14.0998 6.619C14.0621 6.58127 14.0173 6.55134 13.968 6.53093C13.9187 6.51051 13.8659 6.5 13.8125 6.5C13.7592 6.5 13.7063 6.51051 13.657 6.53093C13.6078 6.55134 13.563 6.58127 13.5252 6.619ZM13.8125 10.3943L12.3558 8.93751L13.8125 7.48075L15.2693 8.93751L13.8125 10.3943ZM18.4002 12.3065L18.5193 12.1875L17.0625 10.7308L15.7248 12.0685L15.1502 11.494L16.7752 9.869C16.813 9.83127 16.8578 9.80134 16.907 9.78093C16.9563 9.76051 17.0092 9.75 17.0625 9.75C17.1159 9.75 17.1687 9.76051 17.218 9.78093C17.2673 9.80134 17.3121 9.83127 17.3498 9.869L19.381 11.9002C19.4188 11.938 19.4487 11.9828 19.4691 12.032C19.4895 12.0813 19.5 12.1342 19.5 12.1875C19.5 12.2409 19.4895 12.2937 19.4691 12.343C19.4487 12.3923 19.4188 12.4371 19.381 12.4748L18.9748 12.881L18.4002 12.3065ZM6.21275 13.9315L6.78728 14.506L5.16228 16.131L4.58775 15.5565L6.21275 13.9315ZM7.4315 12.7127L8.00603 13.2873L7.35857 13.9347L6.78403 13.3602L7.4315 12.7127Z" fill="#C71F25"/>
</svg>
