<svg width="26" height="26" viewBox="0 0 26 26" fill="none" xmlns="http://www.w3.org/2000/svg">
<g clip-path="url(#clip0)">
<path d="M20.1384 4.58218C18.7601 4.02437 17.1624 3.82421 15.3894 3.98735C12.4515 4.25763 9.68365 5.47514 8.51137 6.15196C7.33909 6.82877 4.90075 8.61698 3.1977 11.0262C2.17002 12.4801 1.54441 13.9638 1.33843 15.4363C1.08697 17.2337 1.46069 19.0131 2.44916 20.7252C3.76379 23.0022 5.05715 24.2396 6.51944 24.6192C8.02338 25.0096 9.52323 24.447 11.2163 23.4694C11.9508 23.0454 12.7218 22.5431 13.5449 22.0069C14.4978 21.3862 15.4832 20.7442 16.573 20.1151C17.6628 19.4859 18.7114 18.9535 19.7254 18.4386C22.6204 16.9688 24.9071 15.8078 25.5004 13.6605C25.9028 12.2043 25.4779 10.4656 24.1633 8.18857C23.1748 6.47648 21.8206 5.26311 20.1384 4.58218ZM24.7106 13.4111C24.2118 15.2163 22.0623 16.3075 19.3413 17.6891C18.318 18.2086 17.2599 18.7459 16.1518 19.3856C15.0438 20.0253 14.0495 20.6731 13.0878 21.2995C10.5308 22.9653 8.51109 24.2811 6.69843 23.8105C5.48735 23.4961 4.32756 22.3541 3.15264 20.3191C1.51229 17.4779 1.75304 14.5201 3.8683 11.5279C5.90225 8.65055 8.80978 6.95237 8.93256 6.88149C9.05534 6.8106 11.9798 5.14174 15.4886 4.81888C19.1376 4.48315 21.8195 5.75354 23.4598 8.59473C24.6347 10.6297 25.0439 12.2052 24.7106 13.4111Z" fill="#C71F25"/>
<path d="M14.7275 16.0503L14.727 16.0506C14.5327 16.1628 14.4698 16.4168 14.5861 16.6183C14.7024 16.8198 14.9544 16.892 15.1486 16.7798C15.3429 16.6677 15.4061 16.4135 15.2898 16.212C15.1735 16.0106 14.9217 15.9382 14.7275 16.0503Z" fill="#C71F25"/>
<path d="M15.0312 12.2438L15.0307 12.2441C14.8365 12.3562 14.7735 12.6103 14.8898 12.8118C15.0061 13.0132 15.2581 13.0855 15.4523 12.9733C15.6466 12.8611 15.7098 12.6069 15.5935 12.4055C15.4772 12.204 15.2254 12.1317 15.0312 12.2438Z" fill="#C71F25"/>
<path d="M5.50334 15.6698L5.50287 15.6701C5.30862 15.7823 5.24565 16.0364 5.36195 16.2378C5.47825 16.4392 5.73025 16.5115 5.92451 16.3993C6.11876 16.2872 6.18197 16.0329 6.06567 15.8315C5.94937 15.6301 5.6976 15.5577 5.50334 15.6698Z" fill="#C71F25"/>
<path d="M10.3017 17.0494L10.3012 17.0496C10.107 17.1618 10.044 17.4159 10.1603 17.6173C10.2766 17.8188 10.5286 17.891 10.7228 17.7788C10.9171 17.6667 10.9803 17.4125 10.864 17.211C10.7477 17.0096 10.4959 16.9372 10.3017 17.0494Z" fill="#C71F25"/>
<path d="M12.7641 15.4458L12.763 15.4464C12.302 15.7126 11.7048 15.5404 11.4287 15.0621C11.1526 14.5838 11.3031 13.9799 11.7641 13.7137C12.2252 13.4475 12.8229 13.6194 13.099 14.0977C13.3752 14.576 13.2252 15.1796 12.7641 15.4458Z" fill="#C71F25"/>
<path d="M5.95012 19.0431L5.94965 19.0434C5.7554 19.1555 5.69243 19.4096 5.80873 19.6111C5.92505 19.8126 6.17703 19.8848 6.37129 19.7726C6.56554 19.6605 6.62877 19.4063 6.51244 19.2048C6.39617 19.0034 6.14437 18.931 5.95012 19.0431Z" fill="#C71F25"/>
<path d="M8.75292 20.0709L8.75181 20.0715C8.29073 20.3377 8.14135 20.941 8.41748 21.4192C8.69368 21.8976 9.29184 22.0691 9.75292 21.8029C10.214 21.5367 10.364 20.9333 10.0878 20.4549C9.81173 19.9767 9.21399 19.8047 8.75292 20.0709Z" fill="#C71F25"/>
<path d="M21.7055 12.5403L21.705 12.5406C21.5108 12.6527 21.4478 12.9068 21.5641 13.1083C21.6804 13.3098 21.9324 13.382 22.1267 13.2698C22.3209 13.1576 22.3841 12.9035 22.2678 12.702C22.1515 12.5006 21.8997 12.4282 21.7055 12.5403Z" fill="#C71F25"/>
<path d="M19.2348 8.26065L19.2343 8.26093C19.0401 8.37308 18.9771 8.62717 19.0934 8.82861C19.2097 9.03004 19.4617 9.10229 19.656 8.99013C19.8502 8.87798 19.9134 8.62375 19.7971 8.42232C19.6808 8.22088 19.429 8.1485 19.2348 8.26065Z" fill="#C71F25"/>
<path d="M15.7556 9.16689C15.9498 9.05474 16.013 8.80051 15.8967 8.59907C15.7804 8.39764 15.5287 8.32526 15.3344 8.43741L15.3339 8.43768C15.1397 8.54984 15.0767 8.80393 15.193 9.00537C15.3093 9.2068 15.5613 9.27907 15.7556 9.16689Z" fill="#C71F25"/>
<path d="M10.6103 8.05264L10.6098 8.05291C10.4156 8.16507 10.3526 8.41917 10.4689 8.6206C10.5852 8.82203 10.8372 8.89428 11.0314 8.78212C11.2257 8.66997 11.2889 8.41574 11.1726 8.2143C11.0563 8.01287 10.8045 7.94049 10.6103 8.05264Z" fill="#C71F25"/>
<path d="M16.9805 12.156C16.3728 12.5069 16.1744 13.305 16.5382 13.9352C16.9021 14.5654 17.6925 14.7926 18.3002 14.4417C18.9079 14.0909 19.1063 13.2928 18.7425 12.6626C18.3787 12.0324 17.5883 11.8052 16.9805 12.156ZM17.879 13.7123C17.6592 13.8392 17.3733 13.757 17.2417 13.5291C17.1101 13.3011 17.1819 13.0124 17.4017 12.8855C17.6215 12.7586 17.9074 12.8408 18.039 13.0687C18.1706 13.2967 18.0988 13.5854 17.879 13.7123Z" fill="#C71F25"/>
<path d="M7.15632 11.6031C6.54861 11.9539 6.3502 12.7521 6.71403 13.3822C7.07786 14.0124 7.86826 14.2396 8.47598 13.8888C9.08369 13.5379 9.2821 12.7398 8.91827 12.1096C8.55444 11.4794 7.76404 11.2522 7.15632 11.6031ZM8.05481 13.1593C7.83499 13.2862 7.54911 13.204 7.41751 12.9761C7.28591 12.7481 7.35767 12.4595 7.57749 12.3326C7.7973 12.2056 8.08319 12.2878 8.21479 12.5158C8.34639 12.7437 8.27462 13.0324 8.05481 13.1593Z" fill="#C71F25"/>
</g>
<defs>
<clipPath id="clip0">
<rect width="26" height="26" fill="white"/>
</clipPath>
</defs>
</svg>
