<svg width="26" height="26" viewBox="0 0 26 26" fill="none" xmlns="http://www.w3.org/2000/svg">
<g clip-path="url(#clip0)">
<path d="M25.6449 6.81115C25.0609 6.39518 24.7525 6.417 24.0667 5.73146C23.1824 4.84715 23.4484 4.52897 22.4594 3.53993C21.4739 2.55446 21.1516 2.8161 20.2685 1.93298C19.5793 1.24386 19.6115 0.948696 19.1888 0.355191C18.8716 -0.0901372 18.2237 -0.123462 17.9012 0.294293C16.4906 2.12123 16.5033 4.76483 16.6138 6.06352C13.7234 4.55337 9.98844 4.95585 7.47219 7.4721C4.95296 9.99133 4.55485 13.7281 6.0646 16.6157C5.65835 16.5818 5.11939 16.5576 4.51339 16.5828C2.75092 16.657 1.33143 17.1005 0.29418 17.9011C-0.125956 18.2256 -0.0876717 18.8733 0.355276 19.1889C0.946203 19.6098 1.92235 19.8625 2.66919 21.2729C3.14924 22.1792 3.81515 22.8475 4.72683 23.3303C6.1374 24.0774 6.39031 25.0539 6.81124 25.6448C7.12624 26.087 7.7737 26.1267 8.09882 25.7057C9.50939 23.8788 9.49669 21.235 9.38621 19.9363C12.2766 21.4465 16.0116 21.0442 18.5278 18.5277C21.0472 16.0083 21.445 12.2717 19.9356 9.38453C21.8964 9.54759 24.1544 9.29646 25.7058 8.09874C26.126 7.77421 26.0877 7.12655 25.6449 6.81115ZM8.01075 8.01086L8.03396 7.98765V15.2484C8.03396 15.6659 8.79568 15.6745 8.79568 15.2484V7.33186C9.48975 6.81472 10.2667 6.43406 11.0929 6.20356V19.7965C10.2667 19.566 9.48975 19.1853 8.79568 18.6682V16.7855C8.79568 16.2821 8.03396 16.2813 8.03396 16.7855V18.0124C5.24912 15.252 5.24952 10.7721 8.01075 8.01086ZM7.49976 25.2374C7.26252 25.3265 7.06197 23.7052 5.08329 22.6573C4.30947 22.2475 3.75266 21.6912 3.34244 20.9164C2.31928 18.9842 0.763509 18.7622 0.75974 18.5041C1.88903 17.6323 3.4327 17.3923 4.52886 17.3447C5.46792 17.3036 6.25026 17.3931 6.5607 17.4365C6.63588 17.5452 6.71404 17.6522 6.79497 17.7573C6.17985 17.9457 5.37607 18.2457 4.65799 18.7533C4.24262 19.0471 4.69013 19.6636 5.09777 19.3753C5.85929 18.8368 6.73269 18.5611 7.33928 18.3919C7.48588 18.5456 7.63842 18.6934 7.79731 18.8354C7.6408 19.4172 7.36567 20.3059 6.80826 21.0821C6.51191 21.4947 7.13517 21.9327 7.42696 21.5264C7.96215 20.7814 8.26049 19.9694 8.44279 19.3539C8.48266 19.3827 8.52292 19.4113 8.56339 19.4392C8.66178 20.1462 8.99701 23.296 7.49976 25.2374ZM11.8547 19.9639V6.03614C12.6118 5.91336 13.394 5.91336 14.1519 6.03714V19.9627C13.3949 20.0865 12.6128 20.0869 11.8547 19.9639ZM17.9893 17.9892C17.9837 17.9947 17.9782 18.0003 17.9726 18.0056V11.2216C17.9726 10.7181 17.2109 10.7173 17.2109 11.2216V18.6632C16.517 19.1815 15.74 19.5632 14.9136 19.7947V6.20535C15.74 6.43684 16.517 6.81849 17.2109 7.33682V9.69735C17.2109 10.2006 17.9726 10.2016 17.9726 9.69735V7.9944C17.9782 7.99975 17.9837 8.00531 17.9893 8.01086C20.7467 10.7681 20.7469 15.2313 17.9893 17.9892ZM19.4393 8.5635C19.4113 8.52304 19.3828 8.48277 19.354 8.4427C20.0007 8.25148 20.8598 7.9335 21.6356 7.34654C22.0371 7.04265 21.5783 6.43486 21.1758 6.73895C20.3764 7.34396 19.4433 7.63377 18.8353 7.79742C18.6935 7.63873 18.5459 7.48639 18.3917 7.3392C18.5677 6.7086 18.8559 5.79771 19.4334 5.01754C19.7327 4.61288 19.1211 4.15922 18.821 4.56448C18.2709 5.30755 17.954 6.15239 17.7572 6.79489C17.652 6.71396 17.5451 6.636 17.4366 6.56082C17.1772 4.70314 17.3478 2.2583 18.5002 0.762631C18.6526 0.7057 18.864 1.60588 19.7297 2.47154C20.7164 3.4582 21.0365 3.19438 21.9208 4.07869C22.8051 4.96299 22.5393 5.28097 23.5282 6.27002C24.0435 6.78537 24.4002 6.97441 24.715 7.14123C24.8455 7.21046 25.2391 7.41359 25.2403 7.49591C23.741 8.65336 21.296 8.82257 19.4393 8.5635Z" fill="#C71F25"/>
</g>
<defs>
<clipPath id="clip0">
<rect width="26" height="26" fill="white"/>
</clipPath>
</defs>
</svg>
